<svg xmlns="http://www.w3.org/2000/svg" xmlns:xlink="http://www.w3.org/1999/xlink" width="1253.018" height="927.324" viewBox="0 0 1253.018 927.324">
  <defs>
    <clipPath id="clip-path">
      <path id="Clip_511" data-name="Clip 511" d="M1.6,97.585A1.6,1.6,0,0,1,.469,94.852L94.872.469a1.6,1.6,0,0,1,2.265,2.265L2.735,97.116" transform="translate(0 0)" fill="none"/>
    </clipPath>
    <linearGradient id="linear-gradient" x1="0.5" x2="0.5" y2="1" gradientUnits="objectBoundingBox">
      <stop offset="0" stop-color="#00d8ff"/>
      <stop offset="1"/>
    </linearGradient>
    <clipPath id="clip-path-2">
      <path id="Clip_517" data-name="Clip 517" d="M1.6,97.586A1.6,1.6,0,0,1,.469,94.852L94.872.469a1.6,1.6,0,0,1,2.265,2.265L2.735,97.116" transform="translate(0 0)" fill="none"/>
    </clipPath>
    <linearGradient id="linear-gradient-2" x1="0" y1="0.5" x2="1" y2="0.5" xlink:href="#linear-gradient"/>
    <linearGradient id="linear-gradient-4" y1="0.5" x2="1" y2="0.5" gradientUnits="objectBoundingBox">
      <stop offset="0" stop-color="#00d8ff"/>
      <stop offset="1" stop-color="#0075b3"/>
    </linearGradient>
    <clipPath id="clip-path-5">
      <path id="Clip_535" data-name="Clip 535" d="M1.6,97.586A1.6,1.6,0,0,1,.469,94.852L94.872.47a1.6,1.6,0,0,1,2.265,2.264L2.735,97.117" fill="none"/>
    </clipPath>
    <clipPath id="clip-path-6">
      <path id="Clip_541" data-name="Clip 541" d="M1.6,97.586A1.6,1.6,0,0,1,.47,94.852L94.872.469a1.6,1.6,0,0,1,2.265,2.265L2.734,97.116" transform="translate(0 0)" fill="none"/>
    </clipPath>
    <clipPath id="clip-path-7">
      <path id="Clip_545" data-name="Clip 545" d="M50.746,69.306h0L0,18.57,69.32,0,50.746,69.3ZM64.79,4.529l-58.6,15.7,42.9,42.889L64.79,4.529Z" transform="translate(0 0)" fill="none"/>
    </clipPath>
    <clipPath id="clip-path-8">
      <path id="Clip_511-2" data-name="Clip 511" d="M1.287,78.41a1.286,1.286,0,0,1-.91-2.2L76.23.377A1.287,1.287,0,0,1,78.05,2.2L2.2,78.033" transform="translate(0 0)" fill="none"/>
    </clipPath>
    <clipPath id="clip-path-9">
      <path id="Clip_517-2" data-name="Clip 517" d="M1.287,78.41a1.287,1.287,0,0,1-.91-2.2L76.23.377A1.287,1.287,0,0,1,78.05,2.2L2.2,78.033" transform="translate(0 0)" fill="none"/>
    </clipPath>
    <clipPath id="clip-path-12">
      <path id="Clip_535-2" data-name="Clip 535" d="M1.287,78.411a1.287,1.287,0,0,1-.91-2.2L76.23.377A1.287,1.287,0,0,1,78.05,2.2L2.2,78.033" fill="none"/>
    </clipPath>
    <clipPath id="clip-path-13">
      <path id="Clip_541-2" data-name="Clip 541" d="M1.288,78.41a1.287,1.287,0,0,1-.91-2.2L76.23.377A1.287,1.287,0,0,1,78.05,2.2L2.2,78.033" transform="translate(0 0)" fill="none"/>
    </clipPath>
    <clipPath id="clip-path-14">
      <path id="Clip_545-2" data-name="Clip 545" d="M40.774,55.687h0L0,14.921,55.7,0,40.775,55.686ZM52.059,3.639,4.973,16.253l34.47,34.462L52.059,3.639Z" fill="none"/>
    </clipPath>
  </defs>
  <g id="Group_13897" data-name="Group 13897" transform="translate(-0.43 -0.865)">
    <g id="Group_589" data-name="Group 589" transform="translate(0.43 0.865)">
      <g id="Group_513" data-name="Group 513" transform="translate(82.158 447.73)">
        <path id="Fill_508" data-name="Fill 508" d="M0,94.382,94.4,0Z" transform="translate(1.602 1.602)" fill="#6ecdff"/>
        <g id="Group_512" data-name="Group 512" transform="translate(0 0)">
          <path id="Clip_511-3" data-name="Clip 511" d="M1.6,97.585A1.6,1.6,0,0,1,.469,94.852L94.872.469a1.6,1.6,0,0,1,2.265,2.265L2.735,97.116" transform="translate(0 0)" fill="none"/>
          <g id="Group_512-2" data-name="Group 512" clip-path="url(#clip-path)">
            <path id="Fill_510" data-name="Fill 510" d="M1.6,97.585A1.6,1.6,0,0,1,.469,94.852L94.872.469a1.6,1.6,0,0,1,2.265,2.265L2.735,97.116a1.6,1.6,0,0,1-1.133.469" transform="translate(0 0)" fill="url(#linear-gradient)"/>
          </g>
        </g>
      </g>
      <g id="Group_519" data-name="Group 519" transform="translate(1155.412 49.397)">
        <path id="Fill_514" data-name="Fill 514" d="M0,94.382,94.4,0Z" transform="translate(1.601 1.601)" fill="#6ecdff"/>
        <g id="Group_518" data-name="Group 518" transform="translate(0 0)">
          <path id="Clip_517-3" data-name="Clip 517" d="M1.6,97.586A1.6,1.6,0,0,1,.469,94.852L94.872.469a1.6,1.6,0,0,1,2.265,2.265L2.735,97.116" transform="translate(0 0)" fill="none"/>
          <g id="Group_518-2" data-name="Group 518" clip-path="url(#clip-path-2)">
            <path id="Fill_516" data-name="Fill 516" d="M1.6,97.586A1.6,1.6,0,0,1,.469,94.852L94.872.469a1.6,1.6,0,0,1,2.265,2.265L2.735,97.116a1.6,1.6,0,0,1-1.133.469" transform="translate(0 0)" fill="url(#linear-gradient-2)"/>
          </g>
        </g>
      </g>
      <g id="Group_525" data-name="Group 525" transform="translate(1061.826 436.279)">
        <path id="Fill_520" data-name="Fill 520" d="M0,94.382,94.4,0Z" transform="translate(1.603 1.602)" fill="#6ecdff"/>
        <g id="Group_524" data-name="Group 524" transform="translate(0 0)">
          <path id="Clip_523-3" data-name="Clip 523" d="M1.6,97.586A1.6,1.6,0,0,1,.469,94.852L94.872.469a1.6,1.6,0,0,1,2.265,2.265L2.735,97.116" transform="translate(0 0)" fill="none"/>
          <g id="Group_524-2" data-name="Group 524" clip-path="url(#clip-path-2)">
            <path id="Fill_522" data-name="Fill 522" d="M1.6,97.586A1.6,1.6,0,0,1,.469,94.852L94.872.469a1.6,1.6,0,0,1,2.265,2.265L2.735,97.116a1.6,1.6,0,0,1-1.133.469" transform="translate(0 0)" fill="url(#linear-gradient-2)"/>
          </g>
        </g>
      </g>
      <g id="Group_531" data-name="Group 531" transform="translate(492.867)">
        <path id="Fill_526" data-name="Fill 526" d="M0,94.382,94.4,0Z" transform="translate(1.601 1.601)" fill="#6ecdff"/>
        <g id="Group_530" data-name="Group 530" transform="translate(0)">
          <path id="Clip_529-3" data-name="Clip 529" d="M1.6,97.586A1.6,1.6,0,0,1,.469,94.852L94.872.469a1.6,1.6,0,0,1,2.265,2.265L2.735,97.116" transform="translate(0 0)" fill="none"/>
          <g id="Group_530-2" data-name="Group 530" clip-path="url(#clip-path-2)">
            <path id="Fill_528" data-name="Fill 528" d="M1.6,97.586A1.6,1.6,0,0,1,.469,94.852L94.872.469a1.6,1.6,0,0,1,2.265,2.265L2.735,97.116a1.6,1.6,0,0,1-1.133.469" transform="translate(0 0)" fill="url(#linear-gradient-4)"/>
          </g>
        </g>
      </g>
      <g id="Group_537" data-name="Group 537" transform="translate(982.33 829.738)">
        <path id="Fill_532" data-name="Fill 532" d="M0,94.382,94.4,0Z" transform="translate(1.602 1.602)" fill="#6ecdff"/>
        <g id="Group_536" data-name="Group 536" transform="translate(0 0)">
          <path id="Clip_535-3" data-name="Clip 535" d="M1.6,97.586A1.6,1.6,0,0,1,.469,94.852L94.872.47a1.6,1.6,0,0,1,2.265,2.264L2.735,97.117" fill="none"/>
          <g id="Group_536-2" data-name="Group 536" clip-path="url(#clip-path-5)">
            <path id="Fill_534" data-name="Fill 534" d="M1.6,97.586A1.6,1.6,0,0,1,.469,94.852L94.872.47a1.6,1.6,0,0,1,2.265,2.264L2.735,97.117a1.6,1.6,0,0,1-1.133.469" fill="url(#linear-gradient-4)"/>
          </g>
        </g>
      </g>
      <g id="Group_543" data-name="Group 543" transform="translate(22.759 155.731)">
        <path id="Fill_538" data-name="Fill 538" d="M0,94.382,94.4,0Z" transform="translate(1.602 1.601)" fill="#6ecdff"/>
        <g id="Group_542" data-name="Group 542" transform="translate(0 0)">
          <path id="Clip_541-3" data-name="Clip 541" d="M1.6,97.586A1.6,1.6,0,0,1,.47,94.852L94.872.469a1.6,1.6,0,0,1,2.265,2.265L2.734,97.116" transform="translate(0 0)" fill="none"/>
          <g id="Group_542-2" data-name="Group 542" clip-path="url(#clip-path-6)">
            <path id="Fill_540" data-name="Fill 540" d="M1.6,97.586A1.6,1.6,0,0,1,.47,94.852L94.872.469a1.6,1.6,0,0,1,2.265,2.265L2.734,97.116a1.594,1.594,0,0,1-1.132.469" transform="translate(0 0)" fill="url(#linear-gradient-4)"/>
          </g>
        </g>
      </g>
      <g id="Group_546" data-name="Group 546" transform="translate(464.099 532.12)">
        <path id="Clip_545-3" data-name="Clip 545" d="M50.746,69.306h0L0,18.57,69.32,0,50.746,69.3ZM64.79,4.529l-58.6,15.7,42.9,42.889L64.79,4.529Z" transform="translate(0 0)" fill="none"/>
        <g id="Group_546-2" data-name="Group 546" transform="translate(0 0)" clip-path="url(#clip-path-7)">
          <path id="Fill_544" data-name="Fill 544" d="M50.746,69.306h0L0,18.57,69.32,0,50.746,69.3ZM64.79,4.529l-58.6,15.7,42.9,42.889L64.79,4.529Z" transform="translate(0 0)" fill="none"/>
        </g>
      </g>
      <g id="Group_567" data-name="Group 567" transform="translate(791.582 66.15)">
        <path id="Fill_553" data-name="Fill 553" d="M0,10.054,2.447,0,16.325,9.567Z" transform="translate(339.763 35.347)" fill="#0073ff"/>
        <path id="Fill_555" data-name="Fill 555" d="M0,14.008.247,0,8.28,5.467Z" transform="translate(348.448 56.619)" fill="#03a8fd"/>
        <path id="Fill_557" data-name="Fill 557" d="M0,.6,5.682,0,.631,11.6Z" transform="translate(353.887 16.889)" fill="#baf5ff"/>
        <path id="Fill_563" data-name="Fill 563" d="M0,2.466,11.221,0,3.2,7.406Z" transform="translate(0 0)" fill="#03d5ff"/>
      </g>
      <g id="Group_588" data-name="Group 588" transform="translate(0 318.988)">
        <path id="Fill_568" data-name="Fill 568" d="M.791,0,11.8,10.856,0,11.814Z" transform="translate(16.665 298.995)" fill="#03a8ff"/>
        <path id="Fill_570" data-name="Fill 570" d="M15.275.446l-13.5,11.9L0,0Z" transform="translate(0 284.978)" fill="#94faeb"/>
        <path id="Fill_572" data-name="Fill 572" d="M11.075,7.838,7.293,13.769,0,0Z" transform="translate(40.77 318.063)" fill="#0073ff"/>
        <path id="Fill_574" data-name="Fill 574" d="M4.278,0,8.74,10.584,0,4.046Z" transform="translate(38.435 295.693)" fill="#03abff"/>
        <path id="Fill_576" data-name="Fill 576" d="M5.478,10.7,0,12.326,2.862,0Z" transform="translate(50.736 255.896)" fill="#baf5ff"/>
        <path id="Fill_578" data-name="Fill 578" d="M3.816,0l9.647,14.892L0,13.039Z" transform="translate(173.694 92.492)" fill="#6ecdff"/>
        <path id="Fill_580" data-name="Fill 580" d="M9.109,0l1.729,6.461L0,5.335Z" transform="translate(200.506 99.072)" fill="#03a8fd"/>
        <path id="Fill_582" data-name="Fill 582" d="M15.966,0l-.581,10.331L0,3.441Z" transform="translate(195.546 0)" fill="#75b3ff"/>
        <path id="Fill_584" data-name="Fill 584" d="M6.592,0l2.3,13.821L0,9.9Z" transform="translate(158.351 7.371)" fill="#03a8fd"/>
        <path id="Fill_586" data-name="Fill 586" d="M11.377,6.31,0,1.585,11.6,0Z" transform="translate(209.316 20.219)" fill="#00d5ff"/>
      </g>
    </g>
    <g id="Group_589-2" data-name="Group 589" transform="translate(1233.172 784.43) rotate(-180)">
      <g id="Group_513-2" data-name="Group 513" transform="translate(66.014 359.752)">
        <path id="Fill_508-2" data-name="Fill 508" d="M0,75.836,75.853,0Z" transform="translate(1.287 1.287)" fill="#6ecdff"/>
        <g id="Group_512-3" data-name="Group 512" transform="translate(0 0)">
          <path id="Clip_511-4" data-name="Clip 511" d="M1.287,78.41a1.286,1.286,0,0,1-.91-2.2L76.23.377A1.287,1.287,0,0,1,78.05,2.2L2.2,78.033" transform="translate(0 0)" fill="none"/>
          <g id="Group_512-4" data-name="Group 512" clip-path="url(#clip-path-8)">
            <path id="Fill_510-2" data-name="Fill 510" d="M1.287,78.41a1.286,1.286,0,0,1-.91-2.2L76.23.377A1.287,1.287,0,0,1,78.05,2.2L2.2,78.033a1.284,1.284,0,0,1-.91.377" transform="translate(0 0)" fill="url(#linear-gradient)"/>
          </g>
        </g>
      </g>
      <g id="Group_519-2" data-name="Group 519" transform="translate(928.376 39.69)">
        <path id="Fill_514-2" data-name="Fill 514" d="M0,75.836,75.853,0Z" transform="translate(1.287 1.287)" fill="#6ecdff"/>
        <g id="Group_518-3" data-name="Group 518" transform="translate(0 0)">
          <path id="Clip_517-4" data-name="Clip 517" d="M1.287,78.41a1.287,1.287,0,0,1-.91-2.2L76.23.377A1.287,1.287,0,0,1,78.05,2.2L2.2,78.033" transform="translate(0 0)" fill="none"/>
          <g id="Group_518-4" data-name="Group 518" clip-path="url(#clip-path-9)">
            <path id="Fill_516-2" data-name="Fill 516" d="M1.287,78.41a1.287,1.287,0,0,1-.91-2.2L76.23.377A1.287,1.287,0,0,1,78.05,2.2L2.2,78.033a1.282,1.282,0,0,1-.91.377" transform="translate(0 0)" fill="url(#linear-gradient-2)"/>
          </g>
        </g>
      </g>
      <g id="Group_525-2" data-name="Group 525" transform="translate(853.18 350.551)">
        <path id="Fill_520-2" data-name="Fill 520" d="M0,75.836,75.853,0Z" transform="translate(1.288 1.287)" fill="#6ecdff"/>
        <g id="Group_524-3" data-name="Group 524" transform="translate(0 0)">
          <path id="Clip_523-4" data-name="Clip 523" d="M1.287,78.41a1.287,1.287,0,0,1-.91-2.2L76.23.377A1.287,1.287,0,0,1,78.05,2.2L2.2,78.033" transform="translate(0 0)" fill="none"/>
          <g id="Group_524-4" data-name="Group 524" clip-path="url(#clip-path-9)">
            <path id="Fill_522-2" data-name="Fill 522" d="M1.287,78.41a1.287,1.287,0,0,1-.91-2.2L76.23.377A1.287,1.287,0,0,1,78.05,2.2L2.2,78.033a1.281,1.281,0,0,1-.91.377" transform="translate(0 0)" fill="url(#linear-gradient-2)"/>
          </g>
        </g>
      </g>
      <g id="Group_531-2" data-name="Group 531" transform="translate(396.02)">
        <path id="Fill_526-2" data-name="Fill 526" d="M0,75.836,75.853,0Z" transform="translate(1.287 1.287)" fill="#6ecdff"/>
        <g id="Group_530-3" data-name="Group 530" transform="translate(0)">
          <path id="Clip_529-4" data-name="Clip 529" d="M1.287,78.41a1.287,1.287,0,0,1-.91-2.2L76.23.377A1.287,1.287,0,0,1,78.05,2.2L2.2,78.033" transform="translate(0 0)" fill="none"/>
          <g id="Group_530-4" data-name="Group 530" clip-path="url(#clip-path-9)">
            <path id="Fill_528-2" data-name="Fill 528" d="M1.287,78.41a1.287,1.287,0,0,1-.91-2.2L76.23.377A1.287,1.287,0,0,1,78.05,2.2L2.2,78.033a1.282,1.282,0,0,1-.91.377" transform="translate(0 0)" fill="url(#linear-gradient-4)"/>
          </g>
        </g>
      </g>
      <g id="Group_537-2" data-name="Group 537" transform="translate(789.304 666.697)">
        <path id="Fill_532-2" data-name="Fill 532" d="M0,75.836,75.853,0Z" transform="translate(1.287 1.287)" fill="#6ecdff"/>
        <g id="Group_536-3" data-name="Group 536" transform="translate(0 0)">
          <path id="Clip_535-4" data-name="Clip 535" d="M1.287,78.411a1.287,1.287,0,0,1-.91-2.2L76.23.377A1.287,1.287,0,0,1,78.05,2.2L2.2,78.033" fill="none"/>
          <g id="Group_536-4" data-name="Group 536" clip-path="url(#clip-path-12)">
            <path id="Fill_534-2" data-name="Fill 534" d="M1.287,78.411a1.287,1.287,0,0,1-.91-2.2L76.23.377A1.287,1.287,0,0,1,78.05,2.2L2.2,78.033a1.283,1.283,0,0,1-.91.377" fill="url(#linear-gradient-4)"/>
          </g>
        </g>
      </g>
      <g id="Group_543-2" data-name="Group 543" transform="translate(18.287 125.13)">
        <path id="Fill_538-2" data-name="Fill 538" d="M0,75.836,75.853,0Z" transform="translate(1.288 1.286)" fill="#6ecdff"/>
        <g id="Group_542-3" data-name="Group 542" transform="translate(0 0)">
          <path id="Clip_541-4" data-name="Clip 541" d="M1.288,78.41a1.287,1.287,0,0,1-.91-2.2L76.23.377A1.287,1.287,0,0,1,78.05,2.2L2.2,78.033" transform="translate(0 0)" fill="none"/>
          <g id="Group_542-4" data-name="Group 542" clip-path="url(#clip-path-13)">
            <path id="Fill_540-2" data-name="Fill 540" d="M1.288,78.41a1.287,1.287,0,0,1-.91-2.2L76.23.377A1.287,1.287,0,0,1,78.05,2.2L2.2,78.033a1.281,1.281,0,0,1-.91.377" transform="translate(0 0)" fill="url(#linear-gradient-4)"/>
          </g>
        </g>
      </g>
      <g id="Group_546-3" data-name="Group 546" transform="translate(372.905 427.56)">
        <path id="Clip_545-4" data-name="Clip 545" d="M40.774,55.687h0L0,14.921,55.7,0,40.775,55.686ZM52.059,3.639,4.973,16.253l34.47,34.462L52.059,3.639Z" transform="translate(0 0)" fill="none"/>
        <g id="Group_546-4" data-name="Group 546" transform="translate(0 0)" clip-path="url(#clip-path-14)">
          <path id="Fill_544-2" data-name="Fill 544" d="M40.774,55.687h0L0,14.921,55.7,0,40.775,55.686ZM52.059,3.639,4.973,16.253l34.47,34.462L52.059,3.639Z" fill="none"/>
        </g>
      </g>
      <g id="Group_567-2" data-name="Group 567" transform="translate(636.038 53.152)">
        <path id="Fill_553-2" data-name="Fill 553" d="M0,8.078,1.966,0,13.117,7.687Z" transform="translate(273 28.402)" fill="#0073ff"/>
        <path id="Fill_555-2" data-name="Fill 555" d="M0,11.256.2,0,6.653,4.393Z" transform="translate(279.979 45.493)" fill="#03a8fd"/>
        <path id="Fill_557-2" data-name="Fill 557" d="M0,.485,4.566,0,.507,9.323Z" transform="translate(284.349 13.57)" fill="#baf5ff"/>
        <path id="Fill_563-2" data-name="Fill 563" d="M0,1.981,9.016,0,2.574,5.951Z" transform="translate(0 0)" fill="#03d5ff"/>
      </g>
      <g id="Group_588-2" data-name="Group 588" transform="translate(0 256.307)">
        <path id="Fill_568-2" data-name="Fill 568" d="M.636,0,9.485,8.722,0,9.493Z" transform="translate(13.391 240.243)" fill="#03a8ff"/>
        <path id="Fill_570-2" data-name="Fill 570" d="M12.273.358,1.428,9.924,0,0Z" transform="translate(0 228.981)" fill="#94faeb"/>
        <path id="Fill_572-2" data-name="Fill 572" d="M8.9,6.3,5.86,11.064,0,0Z" transform="translate(32.759 255.564)" fill="#0073ff"/>
        <path id="Fill_574-2" data-name="Fill 574" d="M3.438,0,7.023,8.5,0,3.251Z" transform="translate(30.883 237.59)" fill="#03abff"/>
        <path id="Fill_576-2" data-name="Fill 576" d="M4.4,8.6,0,9.9,2.3,0Z" transform="translate(40.766 205.613)" fill="#baf5ff"/>
        <path id="Fill_578-2" data-name="Fill 578" d="M3.066,0l7.751,11.966L0,10.477Z" transform="translate(139.564 74.318)" fill="#6ecdff"/>
        <path id="Fill_580-2" data-name="Fill 580" d="M7.319,0l1.39,5.191L0,4.287Z" transform="translate(161.107 79.605)" fill="#03a8fd"/>
        <path id="Fill_582-2" data-name="Fill 582" d="M12.829,0l-.467,8.3L0,2.764Z" transform="translate(157.121 0)" fill="#75b3ff"/>
        <path id="Fill_584-2" data-name="Fill 584" d="M5.3,0,7.144,11.1,0,7.957Z" transform="translate(127.235 5.923)" fill="#03a8fd"/>
        <path id="Fill_586-2" data-name="Fill 586" d="M9.141,5.07,0,1.274,9.319,0Z" transform="translate(168.186 16.246)" fill="#00d5ff"/>
      </g>
    </g>
  </g>
</svg>
