<svg xmlns="http://www.w3.org/2000/svg" width="31.003" height="22.001" viewBox="0 0 31.003 22.001">
  <path id="dashboard" d="M21,24a1,1,0,0,1,0-2h9a1,1,0,1,1,0,2Zm-8-1V5a1,1,0,1,1,2,0V23a1,1,0,1,1-2,0ZM9,23V9a1,1,0,0,1,2,0V23a1,1,0,1,1-2,0ZM5,23V15a1,1,0,1,1,2,0v8a1,1,0,1,1-2,0ZM1,23V13a1,1,0,1,1,2,0V23a1,1,0,1,1-2,0Zm20-3a1,1,0,1,1,0-2h9a1,1,0,1,1,0,2Zm1.25-5.871A6.5,6.5,0,0,1,19.871,5.25a6.5,6.5,0,0,1,8.879-2.379,6.5,6.5,0,0,1,2.379,8.879,6.5,6.5,0,0,1-8.879,2.379Zm-.77-7.951A4.644,4.644,0,0,0,25.5,13.144a4.653,4.653,0,0,0,4.455-3.317.925.925,0,0,1-.824.176l-3.588-.962A.929.929,0,0,1,24.881,7.9a.939.939,0,0,1,.162-.328.933.933,0,0,1,.117-.345L26.97,4.1a4.64,4.64,0,0,0-5.491,2.083Zm5.646,1.364,2.482.665a.924.924,0,0,1,.536.389A4.665,4.665,0,0,0,28.58,5.024Z" transform="translate(-1 -1.999)" fill="#888"/>
</svg>
