<svg xmlns="http://www.w3.org/2000/svg" width="19" height="13.006" viewBox="0 0 19 13.006">
  <g id="Group_14031" data-name="Group 14031" transform="translate(-11691.5 -4542.5)">
    <path id="Union_298" data-name="Union 298" d="M1.661,12.006c-.459,0-1.645-.4-1.646-.874L0,5.135A.839.839,0,0,1,.828,4.28a.849.849,0,0,1,.833.859l.009,3.948,3.84-3.963,1.165,1.2L2,11.15l-.328-.339v.325c0,.472.444.869-.012.869Zm8.514-3.92a.87.87,0,0,1,0-1.2l1.165-1.2,0,0,3.827-3.95L11.35,1.712a.852.852,0,0,1-.833-.86A.837.837,0,0,1,11.344,0l5.8.022a.851.851,0,0,1,.832.859L18,6.871a.837.837,0,0,1-.824.853h0a.85.85,0,0,1-.832-.859l-.014-3.922-3.82,3.943,0,0-1.165,1.2a.808.808,0,0,1-1.165,0Z" transform="translate(11692 4543)" fill="#888" stroke="rgba(0,0,0,0)" stroke-miterlimit="10" stroke-width="1"/>
    <path id="Shape_sp-3379-0" data-name="Shape sp-3379-0" d="M0,.855a.848.848,0,0,0,.832.858l5.81.015A.948.948,0,0,0,7.47.873.849.849,0,0,0,6.638.014L.828,0A.838.838,0,0,0,0,.855Z" transform="translate(11692.014 4553.278)" fill="#888" stroke="rgba(0,0,0,0)" stroke-miterlimit="10" stroke-width="1"/>
    <path id="Shape_sp-3379-0-2" data-name="Shape sp-3379-0" d="M2.835,11.938,8.678,5.906a.807.807,0,0,1,1.165,0,.87.87,0,0,1,0,1.2L4,13.141a.806.806,0,0,1-1.165,0A.87.87,0,0,1,2.835,11.938Z" transform="translate(11690 4541.01)" fill="#888"/>
  </g>
</svg>
