<svg xmlns="http://www.w3.org/2000/svg" width="23" height="23" viewBox="0 0 23 23">
  <path id="home" d="M24,25H16a1,1,0,1,1,0-2h8a1,1,0,1,1,0,2ZM9,25H5a3,3,0,0,1-3-3V5A3,3,0,0,1,5,2H9a3,3,0,0,1,3,3V22A3,3,0,0,1,9,25ZM5,4A1,1,0,0,0,4,5V22a1,1,0,0,0,1,1H9a1,1,0,0,0,1-1V5A1,1,0,0,0,9,4ZM24,21H16a1,1,0,1,1,0-2h8a1,1,0,1,1,0,2Zm0-4H16a1,1,0,1,1,0-2h8a1,1,0,1,1,0,2Zm-2-5H18a3,3,0,0,1-3-3V5a3,3,0,0,1,3-3h4a3,3,0,0,1,3,3V9A3,3,0,0,1,22,12ZM18,4a1,1,0,0,0-1,1V9a1,1,0,0,0,1,1h4a1,1,0,0,0,1-1V5a1,1,0,0,0-1-1Z" transform="translate(-2 -2)" fill="#888"/>
</svg>
