<?xml version="1.0"?>
<svg xmlns="http://www.w3.org/2000/svg" xmlns:xlink="http://www.w3.org/1999/xlink" xmlns:svgjs="http://svgjs.com/svgjs" version="1.1" width="512" height="512" x="0" y="0" viewBox="0 0 512 512" style="enable-background:new 0 0 512 512" xml:space="preserve" class=""><g><g xmlns="http://www.w3.org/2000/svg"><path d="m7.813 509.935h132.571v-348.613h-132.571zm30-318.613h72.571v288.612h-72.571z" fill="#ffffff" data-original="#000000" style=""/><path d="m74.099 2.065c-40.859 0-74.099 33.241-74.099 74.099s33.24 74.1 74.099 74.1 74.1-33.241 74.1-74.1-33.242-74.099-74.1-74.099zm-44.099 74.099c0-24.316 19.782-44.099 44.099-44.099s44.1 19.782 44.1 44.099-19.783 44.1-44.1 44.1-44.099-19.784-44.099-44.1z" fill="#ffffff" data-original="#000000" style=""/><path d="m511.679 270.79c-4.718-67.855-61.318-120.144-131.489-120.144-31.387 0-61.016 10.912-84.361 30.274v-19.6h-127.03v348.613h132.572v-190.664c0-21.488 17.481-38.97 38.97-38.97 21.487 0 38.969 17.482 38.969 38.979l.128 190.656h132.562v-238.822zm-240.308 209.145h-72.572v-288.614h67.029v42.847l24.005.138 4.46-6.924c18.85-29.265 50.961-46.735 85.897-46.735 55.836 0 100.543 42.602 101.78 96.985l.03 202.303h-72.582l-.108-160.666c0-38.03-30.94-68.97-68.969-68.97-38.03 0-68.97 30.94-68.97 68.97z" fill="#ffffff" data-original="#000000" style=""/></g></g></svg>
