<svg id="Comment_Icon" data-name="Comment Icon" xmlns="http://www.w3.org/2000/svg" width="24" height="24" viewBox="0 0 24 24">
  <rect id="bound" width="24" height="24" fill="none"/>
  <path id="Combined_Shape" data-name="Combined Shape" d="M9.922,18.573a1,1,0,0,1-.832-.448L7.017,15H3a3,3,0,0,1-3-3V3A3,3,0,0,1,3,0H17a3,3,0,0,1,3,3v9a3,3,0,0,1-3,3H12.487L10.8,18.057A.989.989,0,0,1,9.922,18.573ZM4,8a1,1,0,1,0,0,2H9A1,1,0,0,0,9,8ZM4,4A1,1,0,0,0,4,6h9a1,1,0,1,0,0-2Z" transform="translate(2 3)" fill="#858997"/>
</svg>
