<svg xmlns="http://www.w3.org/2000/svg" width="20.406" height="20.407" viewBox="0 0 20.406 20.407">
  <g id="money" transform="translate(-0.007)">
    <g id="Group_13521" data-name="Group 13521" transform="translate(2.717 18.015)">
      <g id="Group_13520" data-name="Group 13520">
        <path id="Path_19240" data-name="Path 19240" d="M68.683,452.118a.4.4,0,1,0,.117.282A.4.4,0,0,0,68.683,452.118Z" transform="translate(-68.003 -452.001)" fill="#858585"/>
      </g>
    </g>
    <g id="Group_13523" data-name="Group 13523" transform="translate(18.04 7.175)">
      <g id="Group_13522" data-name="Group 13522">
        <path id="Path_19241" data-name="Path 19241" d="M453.134,180.125a.4.4,0,1,0,.117.282A.4.4,0,0,0,453.134,180.125Z" transform="translate(-452.454 -180.008)" fill="#858585"/>
      </g>
    </g>
    <g id="Group_13525" data-name="Group 13525" transform="translate(0.007)">
      <g id="Group_13524" data-name="Group 13524" transform="translate(0)">
        <path id="Path_19242" data-name="Path 19242" d="M20.3.117A.4.4,0,0,0,20.014,0h-9.8a.4.4,0,0,0-.4.4v1.14L6.033,2.551a.4.4,0,0,0-.282.488L7.71,10.347,6.016,12.041a1.2,1.2,0,0,0-.987-.522H1.2a1.2,1.2,0,0,0-1.2,1.2v6.5a1.2,1.2,0,0,0,1.2,1.2H5.029a1.2,1.2,0,0,0,1.16-.908l.474.413a2.008,2.008,0,0,0,1.32.495H20.015a.4.4,0,0,0,.4-.4V.4A.4.4,0,0,0,20.3.117ZM5.427,19.211a.4.4,0,0,1-.4.4H1.2a.4.4,0,0,1-.4-.4v-6.5a.4.4,0,0,1,.4-.4H2.717v4.591a.4.4,0,0,0,.8,0V12.316H5.029a.4.4,0,0,1,.4.4v6.5Zm1.2-15.993,3.187-.854V3.841l-.267.072a.4.4,0,0,0-.282.488A1.074,1.074,0,0,1,8.5,5.715a.4.4,0,0,0-.282.489l1.554,5.753h-.8l-.412-1.613A.4.4,0,0,0,8.5,10.2ZM9.811,5.669V9.032L9.084,6.34A1.867,1.867,0,0,0,9.811,5.669Zm5.726,13.941H7.983a1.211,1.211,0,0,1-.8-.3l-.962-.839V12.959l1.74-1.74.316,1.235a.4.4,0,0,0,.386.3H16.5a.558.558,0,1,1,0,1.116H12.487a.4.4,0,1,0,0,.8H17.75a.558.558,0,0,1,0,1.116H12.487a.4.4,0,1,0,0,.8H16.9a.558.558,0,0,1,0,1.116h-4.41a.4.4,0,1,0,0,.8h3.05a.558.558,0,1,1,0,1.116Zm4.079,0H16.772a1.35,1.35,0,0,0,0-1.116H16.9a1.354,1.354,0,0,0,1.211-1.962,1.354,1.354,0,0,0,.729-2.114V9.367a.4.4,0,1,0-.8,0V13.9a1.355,1.355,0,0,0-.291-.032h-.013A1.354,1.354,0,0,0,16.5,11.957h-.641a1.907,1.907,0,1,0-1.5,0H12.184V4.379A1.876,1.876,0,0,0,13.613,2.95h3A1.876,1.876,0,0,0,18.04,4.379V5.618a.4.4,0,0,0,.8,0V4.023a.4.4,0,0,0-.4-.4,1.074,1.074,0,0,1-1.073-1.073.4.4,0,0,0-.4-.4h-3.71a.4.4,0,0,0-.4.4,1.074,1.074,0,0,1-1.073,1.073.4.4,0,0,0-.4.4v7.934h-.778V.8h9.007Zm-4.5-8.3a1.11,1.11,0,1,1,1.11-1.11A1.112,1.112,0,0,1,15.112,11.314Z" transform="translate(-0.007)" fill="#858585"/>
      </g>
    </g>
  </g>
</svg>
