<svg xmlns="http://www.w3.org/2000/svg" width="19.01" height="11.011" viewBox="0 0 19.01 11.011">
  <path id="reports_icon" data-name="reports icon" d="M1901.81,5679.44a1.027,1.027,0,0,1-1.194-.478l-2.865-5.23-2.439,3.045a1.035,1.035,0,0,1-1.423.174.963.963,0,0,1-.18-1.38l3.11-3.883a1.034,1.034,0,0,1,1.308-.249,1.021,1.021,0,0,1,.948.521l2.792,5.095,4.362-7.766a1.215,1.215,0,0,1,.292-.348.84.84,0,0,1,.259-.291,1.156,1.156,0,0,1,1.532.372l3.924,5.186a1.05,1.05,0,0,1-.1,1.513,1.154,1.154,0,0,1-1.532-.371l-3.138-4.146-4.324,7.7a1.151,1.151,0,0,1-.987.6A.956.956,0,0,1,1901.81,5679.44Z" transform="translate(-1893.497 -5668.492)" fill="#fafafa"/>
</svg>
