<svg xmlns="http://www.w3.org/2000/svg" width="17.998" height="18.005" viewBox="0 0 17.998 18.005">
  <path id="sale_icon" data-name="sale icon" d="M1910.2,5410.005l-14.4,0h-1.5v-.159l-.3-.031,1.613-13.975.555.058v-.064h2.16v1.781h-1.1l-1.225,10.62H1910l-1.226-10.62h-1.1v-1.78h2.16v.064l.557-.058,1.613,13.975-.289.031V5410h-1.484l-.025,0Zm-9.2-10.534h-1.715c0-.057,0-.114,0-.17v-3.99a3.313,3.313,0,0,1,3.31-3.31h.8a3.313,3.313,0,0,1,3.31,3.31v3.99c0,.054,0,.111,0,.168H1905v-1.86h-4v1.86h0Zm4-3.641v-.451a1.792,1.792,0,0,0-1.791-1.79h-.42a1.791,1.791,0,0,0-1.789,1.79v.451Z" transform="translate(-1894.002 -5392)" fill="#fafafa"/>
</svg>
