<svg xmlns="http://www.w3.org/2000/svg" width="17.995" height="16" viewBox="0 0 17.995 16">
  <path id="task_icon" data-name="task icon" d="M1896,6168a1,1,0,0,1-1-1v-14a1,1,0,0,1,1-1h14a1,1,0,0,1,1,1v3l-2,2v-4h-12v12h14v1a1,1,0,0,1-1,1Zm10.8-3.138-2.816-2.761a.483.483,0,0,1,0-.694l.712-.7a.506.506,0,0,1,.707,0l1.76,1.726,4.271-4.188a.509.509,0,0,1,.709,0l.7.69a.486.486,0,0,1,0,.695l-4.61,4.522-.016.017-.712.7a.512.512,0,0,1-.358.146A.494.494,0,0,1,1906.8,6164.862Z" transform="translate(-1894.999 -6152)" fill="#fafafa"/>
</svg>
