<svg xmlns="http://www.w3.org/2000/svg" width="16" height="20.286" viewBox="0 0 16 20.286">
  <path id="Combined_Shape" data-name="Combined Shape" d="M8,20.286a1,1,0,0,1-.53-.152L5.17,18.7A11,11,0,0,1,0,9.368v-7.9L7.631.034a1.99,1.99,0,0,1,.737,0L16,1.465v7.9A11,11,0,0,1,10.83,18.7l-2.3,1.437A1,1,0,0,1,8,20.286ZM5.276,8.382a.982.982,0,0,0-.689.288.925.925,0,0,0,0,1.341L6.5,11.928a.928.928,0,0,0,1.342,0l3.833-3.833a.949.949,0,1,0-1.342-1.342L7.175,9.916,5.929,8.67A.864.864,0,0,0,5.276,8.382Z" fill="#fff"/>
</svg>
