<svg xmlns="http://www.w3.org/2000/svg" width="26.009" height="24.01" viewBox="0 0 26.009 24.01">
  <path id="wallet" d="M4,26a2,2,0,0,1-2-2V9a1.991,1.991,0,0,1,.1-.623,1.225,1.225,0,0,1-.073-.215,1.161,1.161,0,0,1,.73-1.4L18.709,2.03a1.027,1.027,0,0,1,1.264.808,1.16,1.16,0,0,1-.73,1.4L9.931,7H24a2,2,0,0,1,2,2v3.171A3.006,3.006,0,0,1,28,15v3a3,3,0,0,1-2,2.829V24a2,2,0,0,1-2,2Zm0-2H24V21H19a3,3,0,0,1-3-3V15a3,3,0,0,1,3-3h5V9H4Zm14-9v3a1,1,0,0,0,1,1h6a1,1,0,0,0,1-1V15a1,1,0,0,0-1-1H19A1,1,0,0,0,18,15Zm1,1.5A1.5,1.5,0,1,1,20.5,18,1.5,1.5,0,0,1,19,16.5Z" transform="translate(-1.991 -1.99)" fill="#888"/>
</svg>
